<svg xmlns="http://www.w3.org/2000/svg" width="600" height="400"><defs><style>.label{font-size:14px}.label,.value,.yaxis{font-family:Arial,sans-serif}.value{font-size:16px;font-weight:700;fill:#fff}.yaxis{font-size:12px}</style></defs><path fill="#f8f9fa" d="M0 0h600v400H0z"/><text x="300" y="30" style="font-family:Arial,sans-serif;font-size:18px;font-weight:700" text-anchor="middle">Signal Ablation: Individual vs Combined</text><path stroke="#333" stroke-width="2" d="M80 60v260"/><text x="40" y="190" class="label" text-anchor="middle" transform="rotate(-90 40 190)">Accuracy (%)</text><text x="70" y="320" class="yaxis" text-anchor="end">0%</text><text x="70" y="260" class="yaxis" text-anchor="end">20%</text><text x="70" y="200" class="yaxis" text-anchor="end">40%</text><text x="70" y="140" class="yaxis" text-anchor="end">60%</text><text x="70" y="80" class="yaxis" text-anchor="end">80%</text><text x="70" y="65" class="yaxis" text-anchor="end">100%</text><path stroke="#ddd" d="M80 260h470M80 200h470M80 140h470M80 80h470"/><path fill="#E63946" stroke="#333" stroke-width="2" d="M120 131h120v189H120z"/><text x="180" y="240" class="value" text-anchor="middle">71.2%</text><text x="180" y="350" class="label" text-anchor="middle">Veracity</text><text x="180" y="370" class="label" font-size="12" text-anchor="middle">(Alone)</text><path fill="#F4A261" stroke="#333" stroke-width="2" d="M280 115h120v205H280z"/><text x="340" y="240" class="value" text-anchor="middle">77.9%</text><text x="340" y="350" class="label" text-anchor="middle">Alignment</text><text x="340" y="370" class="label" font-size="12" text-anchor="middle">(Alone)</text><path fill="#2A9D8F" stroke="#333" stroke-width="2" d="M440 87h120v233H440z"/><text x="500" y="240" class="value" text-anchor="middle">91.4%</text><text x="500" y="350" class="label" text-anchor="middle">Combined</text><text x="500" y="370" class="label" font-size="12" text-anchor="middle">(Contextual)</text></svg>